<?xml version="1.0" standalone="no"?>
<!DOCTYPE svg PUBLIC "-//W3C//DTD SVG 20010904//EN"
 "http://www.w3.org/TR/2001/REC-SVG-20010904/DTD/svg10.dtd">
<svg version="1.0" xmlns="http://www.w3.org/2000/svg"
 width="460.000000pt" height="460.000000pt" viewBox="0 0 460.000000 460.000000"
 preserveAspectRatio="xMidYMid meet">
<metadata>
Created by potrace 1.11, written by Peter Selinger 2001-2013
</metadata>
<g transform="translate(0.000000,460.000000) scale(0.100000,-0.100000)"
fill="#000000" stroke="none">
<path d="M2340 4561 l0 -38 -61 -7 c-34 -3 -113 -6 -175 -6 l-114 0 0 -40 0
-40 -62 0 c-35 0 -93 -3 -130 -7 l-68 -6 0 -38 0 -39 -85 0 -85 0 0 -39 0 -39
-85 -7 -85 -7 0 -38 0 -38 -85 -7 -85 -7 0 -39 0 -39 -44 0 -45 0 -3 -42 c-3
-43 -3 -43 -45 -46 -43 -3 -43 -4 -43 -42 l0 -38 -84 -7 -85 -7 -3 -42 c-3
-39 -4 -41 -40 -44 -35 -3 -37 -5 -40 -40 -3 -36 -5 -37 -44 -40 l-42 -3 -7
-85 -7 -84 -38 0 c-38 0 -39 0 -42 -42 -3 -43 -3 -43 -45 -46 l-43 -3 0 -45 0
-44 -39 0 -39 0 -7 -85 -7 -85 -38 0 -38 0 -7 -85 -7 -85 -39 0 -39 0 0 -85 0
-85 -39 0 -38 0 -6 -67 c-4 -38 -7 -96 -7 -130 l0 -63 -40 0 -40 0 0 -114 c0
-62 -3 -141 -6 -175 l-7 -61 -38 0 -39 0 0 -435 0 -435 39 0 38 0 6 -67 c4
-38 7 -116 7 -175 l0 -108 40 0 40 0 0 -62 c0 -35 3 -93 7 -131 l6 -67 38 0
39 0 0 -90 0 -90 39 0 39 0 7 -85 7 -85 38 0 38 0 7 -85 7 -85 39 0 39 0 0
-45 0 -45 45 0 45 0 0 -45 0 -45 40 0 40 0 0 -40 0 -40 220 0 220 0 0 39 c0
40 0 40 -43 43 l-42 3 -3 88 -3 87 -44 0 -45 0 0 40 0 40 -40 0 -40 0 0 90 0
90 -45 0 -45 0 0 220 0 220 46 0 45 0 -3 83 -3 82 88 3 87 3 0 39 0 40 -132 0
c-73 0 -190 3 -260 7 l-128 6 0 -46 0 -47 -40 0 -40 0 0 130 0 130 40 0 40 0
0 40 0 40 40 0 40 0 0 -85 0 -85 50 0 50 0 0 40 0 40 128 0 c70 0 184 3 255 7
l127 6 0 -46 0 -47 45 0 45 0 0 -45 0 -45 45 0 45 0 0 -215 0 -215 -45 0 -45
0 0 -125 0 -125 -40 0 -40 0 0 -45 0 -45 40 0 40 0 0 40 0 40 45 0 45 0 0 45
0 45 45 0 45 0 0 39 0 39 85 7 85 7 0 39 0 39 45 0 45 0 0 40 0 40 40 0 40 0
0 -40 0 -40 90 0 90 0 0 -39 c0 -40 0 -40 43 -43 42 -3 42 -3 45 -45 3 -43 3
-43 43 -43 l39 0 0 -130 0 -130 39 0 39 0 7 -91 7 -90 42 3 c41 3 41 3 44 46
3 42 3 42 43 42 l39 0 0 130 0 130 39 0 39 0 7 90 7 90 39 0 c39 0 39 0 39 40
l0 40 90 0 90 0 0 40 0 40 40 0 40 0 0 -40 0 -40 45 0 45 0 0 -39 0 -39 85 -7
85 -7 0 -39 0 -39 45 0 45 0 0 -45 0 -45 85 0 85 0 0 45 0 45 -40 0 -39 0 -3
128 -3 127 -42 3 -43 3 0 130 0 129 45 0 45 0 0 84 0 85 43 3 c42 3 42 3 45
45 l3 43 192 0 c106 0 222 -3 260 -7 l67 -6 0 -33 c0 -33 1 -34 40 -34 l40 0
0 79 0 79 -85 7 c-79 7 -85 9 -85 30 0 12 -3 50 -6 84 l-7 61 52 0 51 0 0 -45
0 -45 85 0 85 0 0 -85 0 -85 45 0 45 0 0 -45 0 -45 85 0 85 0 0 -39 0 -39 85
-7 85 -7 0 -39 0 -39 45 0 45 0 0 84 0 85 -42 3 c-43 3 -43 3 -46 46 l-3 42
-85 0 -84 0 0 85 0 85 45 0 45 0 0 45 0 45 85 0 85 0 0 85 0 85 -85 0 -85 0 0
45 0 45 -90 0 -90 0 0 -45 0 -45 -169 0 -170 0 -3 42 c-3 43 -3 43 -45 46
l-43 3 0 85 0 84 -92 0 -91 0 6 -127 c4 -71 7 -147 7 -170 l0 -42 43 -3 c42
-3 42 -3 45 -45 l3 -43 -45 0 -45 0 -3 43 c-3 42 -3 42 -45 45 l-43 3 0 215 0
214 45 0 45 0 0 45 0 45 85 0 85 0 0 39 c0 40 0 40 43 43 42 3 42 3 45 46 3
42 3 42 43 42 l39 0 0 45 0 45 -305 0 -305 0 0 40 0 40 -40 0 -40 0 0 45 0 45
-45 0 -45 0 0 130 0 130 45 0 45 0 0 130 0 130 40 0 40 0 0 85 0 85 -40 0 -40
0 0 -40 0 -40 -85 0 -85 0 0 -45 0 -45 -45 0 -45 0 0 -39 c0 -40 0 -40 -42
-43 -43 -3 -43 -3 -46 -45 l-3 -43 -85 0 -84 0 0 40 0 40 -69 0 c-37 0 -95 3
-129 6 l-60 7 -7 83 -7 84 -39 0 -39 0 0 130 0 130 -39 0 -39 0 -7 85 -7 85
-39 0 -38 0 -3 -127 -3 -128 -42 -3 -43 -3 0 -130 0 -129 -45 0 -45 0 0 -45 0
-45 -85 0 -85 0 0 -40 0 -40 -90 0 -90 0 0 39 0 39 -80 7 -80 7 0 38 0 39 -47
3 -48 3 -3 43 c-3 42 -3 42 -43 42 -39 0 -39 0 -39 40 0 35 -3 40 -24 40 -12
0 -51 3 -85 6 l-61 7 0 -47 0 -46 40 0 40 0 0 -90 0 -90 39 0 38 0 7 -61 c3
-34 6 -131 6 -215 l0 -154 -45 0 -45 0 0 -45 0 -45 -40 0 -40 0 0 -40 0 -40
-305 0 -305 0 0 -45 0 -45 40 0 40 0 0 -45 0 -45 50 0 50 0 0 -40 0 -40 80 0
80 0 0 -45 0 -45 45 0 45 0 0 -45 0 -45 40 0 40 0 0 -40 0 -40 -40 0 -40 0 0
-45 0 -45 40 0 40 0 0 -84 0 -84 -80 -7 -80 -7 0 -39 0 -39 -44 0 -45 0 -3
-42 -3 -43 -82 -3 -83 -3 0 46 0 45 40 0 c40 0 40 0 40 39 0 40 0 40 43 43 42
3 42 3 45 46 3 41 4 42 41 42 l38 0 6 67 c4 38 7 96 7 131 l0 62 -45 0 -45 0
0 45 0 45 -45 0 -45 0 0 39 0 39 -85 7 -85 7 0 44 0 44 -39 0 -38 0 -7 61 c-3
34 -6 91 -6 125 l0 64 305 0 305 0 0 45 0 45 40 0 40 0 0 45 0 45 45 0 45 0 0
94 0 93 -38 -4 -39 -5 0 39 c0 21 -3 77 -7 126 l-8 87 -39 0 -39 0 0 129 0
130 43 3 c42 3 42 3 45 46 3 42 3 42 43 42 l39 0 0 -45 0 -45 45 0 45 0 0 -39
0 -39 85 -7 85 -7 0 -39 0 -39 45 0 45 0 0 -45 0 -45 169 0 170 0 3 43 c3 42
3 42 46 45 l42 3 0 130 0 129 45 0 45 0 0 130 0 130 130 0 130 0 0 -85 0 -85
39 0 38 0 6 -67 c4 -38 7 -96 7 -130 l0 -63 39 0 39 0 7 -90 7 -90 84 0 84 0
0 -40 0 -40 40 0 40 0 0 40 0 40 45 0 45 0 0 45 0 45 84 0 85 0 3 43 c3 42 3
42 46 45 42 3 42 3 42 43 l0 39 130 0 130 0 0 -170 0 -170 -39 0 -38 0 -7 -77
c-8 -97 -8 -223 0 -302 l7 -61 38 0 c37 0 38 -1 41 -41 l3 -42 338 -2 c185 -1
339 -4 341 -6 3 -2 6 -40 8 -84 l3 -80 -42 -3 -43 -3 0 -45 0 -44 -40 0 c-40
0 -40 0 -40 -39 l0 -40 -47 -3 c-47 -3 -48 -4 -51 -38 -2 -19 -1 -76 3 -127
l7 -92 41 -3 c42 -3 42 -3 45 -46 l3 -43 82 3 82 3 3 37 3 36 82 7 c45 3 123
5 172 3 l90 -3 3 -37 c3 -37 4 -38 43 -38 l39 0 0 560 0 560 -45 0 -45 0 0 40
0 40 -40 0 -40 0 0 45 0 45 -45 0 -45 0 0 45 0 45 -45 0 -45 0 0 45 0 45 -40
0 -40 0 0 40 0 40 -44 0 -45 0 -3 43 c-3 42 -3 42 -45 45 -43 3 -43 4 -43 41
l0 39 -85 7 -85 7 0 39 0 39 -45 0 -45 0 0 45 0 45 -40 0 -40 0 0 45 0 46 128
-3 127 -3 3 -42 3 -43 130 0 129 0 0 -45 0 -45 45 0 45 0 0 -40 0 -40 40 0 40
0 0 -45 0 -45 45 0 45 0 0 -39 c0 -40 0 -40 43 -43 42 -3 42 -3 45 -45 3 -43
3 -43 43 -43 l39 0 0 260 0 260 -40 0 -40 0 0 40 0 40 -45 0 -45 0 0 45 0 45
-45 0 -45 0 0 39 0 39 -85 7 -85 7 0 38 0 38 -85 7 -85 7 0 39 0 39 -90 0 -90
0 0 39 0 38 -67 6 c-38 4 -96 7 -130 7 l-63 0 0 40 0 40 -107 0 c-60 0 -138 3
-175 7 l-68 6 0 38 0 39 -435 0 -435 0 0 -39z m-1220 -1709 c0 -5 -16 -8 -35
-8 -46 1 -46 16 0 16 19 0 35 -4 35 -8z m1390 -32 l0 -40 -40 0 -40 0 0 40 0
40 40 0 40 0 0 -40z m-1392 -15 c0 -21 -5 -25 -29 -25 -15 0 -31 4 -34 10 -3
5 2 9 12 7 10 -1 18 2 18 8 0 5 -8 8 -17 7 -10 -2 -18 2 -18 7 0 6 15 11 34
11 29 0 34 -3 34 -25z m962 -70 l0 -45 45 0 45 0 0 -40 0 -40 69 0 c37 0 96
-3 130 -6 l61 -7 0 -38 0 -39 -45 0 -45 0 0 -45 0 -45 -40 0 -40 0 0 45 0 45
-45 0 -45 0 0 45 0 45 -45 0 -45 0 0 40 0 40 -40 0 -40 0 0 45 0 45 40 0 40 0
0 -45z m289 39 l61 -7 0 -38 0 -39 45 0 45 0 0 40 0 40 40 0 40 0 0 -80 0 -80
-85 0 -85 0 0 40 0 40 -85 0 -85 0 0 45 c0 51 -2 50 109 39z m-287 -386 c3
-43 3 -43 46 -46 42 -3 42 -3 42 -42 0 -39 0 -39 43 -42 42 -3 42 -3 45 -45
l3 -43 -90 0 -91 0 0 45 0 45 -40 0 c-40 0 -40 0 -40 39 l0 39 -85 7 -85 7 0
39 0 39 124 0 125 0 3 -42z m780 0 c3 -43 3 -43 46 -46 l42 -3 0 -85 0 -84
-45 0 -45 0 0 39 0 39 -85 7 -85 7 0 44 0 44 -40 0 -40 0 0 40 0 40 124 0 125
0 3 -42z m-432 -173 l0 -45 -40 0 -40 0 0 45 0 45 40 0 40 0 0 -45z m1730 -6
l0 -40 -37 3 c-36 3 -38 5 -41 41 l-3 37 40 0 41 0 0 -41z m-2510 -605 l0 -45
-42 3 c-43 3 -43 3 -46 46 l-3 42 45 0 46 0 0 -46z m-960 -84 l0 -40 -40 0
-40 0 0 40 0 40 40 0 40 0 0 -40z m1037 -1 c3 -40 2 -40 -30 -37 -25 2 -33 8
-35 27 -2 15 0 21 7 17 6 -4 11 -1 12 6 0 10 2 10 6 1 7 -18 23 -16 23 1 0 8
-10 17 -22 19 -18 3 -17 5 7 6 28 1 30 -1 32 -40z m261 -59 c1 0 1 -15 1 -32
-1 -30 -2 -31 -8 -8 -5 22 -10 24 -41 19 l-35 -6 33 -2 c20 -1 32 -6 32 -15 0
-9 -10 -13 -30 -11 -16 1 -30 -1 -30 -6 0 -5 -18 -9 -40 -9 l-40 0 0 41 0 41
78 -5 c42 -3 78 -6 80 -7z m92 -115 c0 -34 -1 -35 -40 -35 -39 0 -40 1 -40 35
0 34 1 35 40 35 39 0 40 -1 40 -35z m-1300 -300 l0 -85 -40 0 -40 0 0 85 0 85
40 0 40 0 0 -85z m170 -825 l0 -40 -40 0 -40 0 0 40 0 40 40 0 40 0 0 -40z"/>
<path d="M1130 1130 l0 -80 40 0 40 0 0 80 0 80 -40 0 -40 0 0 -80z"/>
<path d="M3480 1170 l0 -40 40 0 40 0 0 40 0 40 -40 0 -40 0 0 -40z"/>
<path d="M3820 1170 l0 -40 170 0 170 0 0 40 0 40 -170 0 -170 0 0 -40z"/>
<path d="M4170 1086 l0 -34 75 -7 c41 -3 79 -4 85 0 5 3 10 22 10 41 l0 34
-85 0 -85 0 0 -34z"/>
<path d="M960 1000 l0 -40 40 0 40 0 0 40 0 40 -40 0 -40 0 0 -40z"/>
<path d="M4430 1000 l0 -40 40 0 40 0 0 40 0 40 -40 0 -40 0 0 -40z"/>
<path d="M4340 910 l0 -40 40 0 40 0 0 40 0 40 -40 0 -40 0 0 -40z"/>
<path d="M4510 825 l0 -45 -38 0 -39 0 -6 -127 c-4 -71 -7 -167 -7 -215 l0
-88 -85 0 -85 0 0 -130 0 -130 -40 0 -40 0 0 -45 0 -45 85 0 85 0 0 40 c0 35
3 40 24 40 12 0 51 3 85 6 l61 7 0 -47 0 -46 45 0 45 0 0 435 0 435 -45 0 -45
0 0 -45z"/>
<path d="M1650 560 l0 -40 40 0 40 0 0 40 0 40 -40 0 -40 0 0 -40z"/>
<path d="M1310 40 c0 -39 1 -40 35 -40 34 0 35 1 35 40 0 39 -1 40 -35 40 -34
0 -35 -1 -35 -40z"/>
</g>
</svg>
