<svg width="799.9999999999999" height="125" xmlns="http://www.w3.org/2000/svg">
 <!-- Created with Method Draw - http://github.com/duopixel/Method-Draw/ -->

 <g>
  <title>background</title>
  <g id="canvasGrid" display="none">
   <rect id="svg_1" width="100%" height="100%" x="0" y="0" stroke-width="0" fill="url(#gridpattern)"/>
  </g>
 </g>
 <g>
  <title>Layer 1</title>
  <rect stroke="#dfcc74" id="svg_4" height="50" width="702.90319" y="37.5" x="50" stroke-opacity="null" stroke-width="4" fill="#dfcc74"/>
  <ellipse stroke="#dfcc74" ry="24.64277" rx="12.38091" id="svg_2" cy="62.499998" cx="47.21153" stroke-opacity="null" stroke-width="4" fill="#d7cdcc"/>
  <path stroke="#75485e" fill="#75485e" stroke-width="4" d="m65.16794,37.351938l65.83971,0c-7.27246,0 -13.16794,11.25917 -13.16794,25.14806c0,13.88889 5.89548,25.14806 13.16794,25.14806l-65.83971,0l0,0c-7.27246,0 -13.16794,-11.25917 -13.16794,-25.14806c0,-13.88889 5.89548,-25.14806 13.16794,-25.14806z" id="svg_5" transform="rotate(180 91.50382232666016,62.499996185302734) "/>
  <g id="svg_11">
   <text fill="#d7cdcc" stroke="#d7cdcc" stroke-width="0" stroke-opacity="null" x="64.85152" y="52.081857" id="svg_6" font-size="14" font-family="Calibri, Arial, sans-serif" text-anchor="start" xml:space="preserve">Server</text>
   <text fill="#d7cdcc" stroke="#d7cdcc" stroke-width="0" stroke-opacity="null" x="64.85152" y="67.390828" id="svg_7" font-size="14" font-family="Calibri, Arial, sans-serif" text-anchor="start" xml:space="preserve">Receives</text>
   <text fill="#d7cdcc" stroke="#d7cdcc" stroke-width="0" stroke-opacity="null" x="64.85152" y="81.932608" id="svg_8" font-size="14" font-family="Calibri, Arial, sans-serif" text-anchor="start" xml:space="preserve">Request</text>
  </g>
  <ellipse stroke="#dfcc74" ry="24.64277" rx="12.38091" id="svg_3" cy="62.499998" cx="754.19355" stroke-opacity="null" stroke-width="4" fill="#dfcc74"/>
  <path stroke="#75485e" fill="#75485e" stroke-width="4" d="m695.42532,37.25293l65.83971,0c-7.27246,0 -13.16794,11.3035 -13.16794,25.24707c0,13.94357 5.89548,25.24707 13.16794,25.24707l-65.83971,0l0,0c-7.27246,0 -13.16794,-11.3035 -13.16794,-25.24707c0,-13.94357 5.89548,-25.24707 13.16794,-25.24707z" id="svg_12" transform="rotate(180 721.76123046875,62.5) "/>
  <g id="svg_16">
   <text fill="#d7cdcc" stroke="#d7cdcc" stroke-width="0" stroke-opacity="null" x="694.44636" y="52.081857" id="svg_13" font-size="14" font-family="Calibri, sans-serif" text-anchor="start" xml:space="preserve">Server</text>
   <text fill="#d7cdcc" stroke="#d7cdcc" stroke-width="0" stroke-opacity="null" x="694.44636" y="67.390828" id="svg_14" font-size="14" font-family="Calibri, Arial, sans-serif" text-anchor="start" xml:space="preserve">Returns</text>
   <text fill="#d7cdcc" stroke="#d7cdcc" stroke-width="0" stroke-opacity="null" x="694.44636" y="81.932608" id="svg_15" font-size="14" font-family="Calibri, Arial, sans-serif" text-anchor="start" xml:space="preserve">Response</text>
  </g>
  <g id="svg_22">
   <path stroke="#75485e" fill="#75485e" stroke-width="4" d="m358.6678,37.35194l65.83971,0c-7.27246,0 -13.16794,11.25917 -13.16794,25.14806c0,13.88889 5.89548,25.14806 13.16794,25.14806l-65.83971,0l0,0c-7.27246,0 -13.16794,-11.25917 -13.16794,-25.14806c0,-13.88889 5.89548,-25.14806 13.16794,-25.14806z" id="svg_9" transform="rotate(180 385.0038146972656,62.49999618530273) "/>
   <path stroke="#75485e" fill="#75485e" stroke-width="4" d="m393.167786,37.35194l65.83971,0c-7.27246,0 -13.16794,11.25917 -13.16794,25.14806c0,13.88889 5.89548,25.14806 13.16794,25.14806l-65.83971,0l0,0c-7.27246,0 -13.16794,-11.25917 -13.16794,-25.14806c0,-13.88889 5.89548,-25.14806 13.16794,-25.14806z" id="svg_21" transform="rotate(180 419.5038146972656,62.499996185302734) "/>
  </g>
  <g id="svg_20">
   <text fill="#d7cdcc" stroke="#d7cdcc" stroke-width="0" stroke-opacity="null" x="359.851379" y="59.83967" id="svg_10" font-size="14" font-family="Calibri, Arial, sans-serif" text-anchor="start" xml:space="preserve">PatronController</text>
   <text fill="#d7cdcc" stroke="#d7cdcc" stroke-width="0" stroke-opacity="null" x="359.851379" y="74.64864" id="svg_17" font-size="14" font-family="Calibri, Arial, sans-serif" text-anchor="start" xml:space="preserve">CreatePatron</text>
  </g>
  <g id="svg_26">
   <path id="svg_24" d="m255.556318,22.226388c-12.75658,0 -23.706084,7.3864 -29.065676,18.049713c-2.140593,-1.334329 -4.501663,-2.142263 -7.021481,-2.142263c-7.620014,0 -13.960951,6.844363 -15.9208,16.135356c-3.345215,-1.476321 -7.234773,-2.370165 -11.389498,-2.370165c-12.464184,0 -22.574881,7.614361 -22.574881,17.001377c0,8.473376 8.292113,15.439271 19.064143,16.72789c-0.48279,0.914603 -0.857278,1.820314 -0.857278,2.780387c0,8.987564 22.053189,16.317663 49.232024,16.317663c27.178831,0 49.232051,-7.330104 49.232024,-16.317663c0,-0.604715 -0.336157,-1.144374 -0.530691,-1.732046c1.190438,0.330546 2.36914,0.683704 3.674034,0.683704c7.27075,0.000025 13.18569,-5.516022 13.18569,-12.306627c0,-6.79061 -5.91494,-12.306622 -13.18569,-12.306622c-0.891013,0 -1.648652,0.343635 -2.490179,0.501383c0.735832,-2.715226 1.224674,-5.485755 1.224674,-8.432318c0,-17.975113 -14.572605,-32.58976 -32.576405,-32.58976l-0.000009,-0.00001z" stroke-opacity="null" stroke-width="0" stroke="#75485e" fill="#000000"/>
   <text xml:space="preserve" text-anchor="start" font-family="Calibri, Arial, sans-serif" font-size="14" id="svg_25" y="68.242189" x="222.499893" stroke-opacity="null" stroke-width="0" stroke="#75485e" fill="#ffffff">Magic</text>
  </g>
  <g id="svg_29">
   <path id="svg_27" d="m596.556167,22.22639c-12.75658,0 -23.70609,7.3864 -29.06568,18.04971c-2.14059,-1.33433 -4.50166,-2.14226 -7.02148,-2.14226c-7.62001,0 -13.96095,6.84436 -15.9208,16.13535c-3.34521,-1.47632 -7.23477,-2.37016 -11.3895,-2.37016c-12.46418,0 -22.57488,7.61436 -22.57488,17.00138c0,8.47337 8.29212,15.43927 19.06414,16.72789c-0.48279,0.9146 -0.85727,1.82031 -0.85727,2.78038c0,8.98757 22.05319,16.31767 49.23202,16.31767c27.17883,0 49.23205,-7.33011 49.23203,-16.31767c0,-0.60471 -0.33616,-1.14437 -0.5307,-1.73204c1.19044,0.33054 2.36914,0.6837 3.67404,0.6837c7.27075,0.00003 13.18569,-5.51602 13.18569,-12.30662c0,-6.79061 -5.91494,-12.30663 -13.18569,-12.30663c-0.89102,0 -1.64865,0.34364 -2.49018,0.50139c0.73583,-2.71523 1.22467,-5.48576 1.22467,-8.43232c0,-17.97511 -14.5726,-32.58976 -32.5764,-32.58976l-0.00001,-0.00001z" stroke-opacity="null" stroke-width="0" stroke="#75485e" fill="#000000"/>
   <text xml:space="preserve" text-anchor="start" font-family="Calibri, Arial, sans-serif" font-size="14" id="svg_28" y="68.242189" x="563.49974" stroke-opacity="null" stroke-width="0" stroke="#75485e" fill="#ffffff">Magic</text>
  </g>
 </g>
 <g>
  <title>background</title>
 </g>
 <g>
  <title>background</title>
  <rect fill="none" id="canvas_background" height="127" width="802" y="-1" x="-1"/>
 </g>
</svg>